<svg width="60" height="60" viewBox="0 0 60 60" fill="none" xmlns="http://www.w3.org/2000/svg">
<rect width="60" height="60" rx="6" fill="#DCF4FF"/>
<g clip-path="url(#clip0_82_1455)">
<path d="M20.3906 16.0254C18.3164 16.4766 16.6992 18 16.1016 20.0742L15.9668 20.5371V28.125V35.7129L16.1016 36.1758C16.6641 38.1211 18.082 39.5508 20.0449 40.1484C20.4668 40.2715 20.5664 40.2773 23.3613 40.3008L26.25 40.3184L27.8262 42.1172C28.6934 43.1074 29.4727 43.9512 29.5547 43.9922C29.6426 44.0332 29.8418 44.0625 30 44.0625C30.1582 44.0625 30.3574 44.0332 30.4453 43.9922C30.5273 43.9512 31.3066 43.1074 32.1738 42.1172L33.75 40.3184L36.6387 40.3008C39.4336 40.2773 39.5332 40.2715 39.9551 40.1484C41.918 39.5508 43.3359 38.1211 43.8984 36.1758L44.0332 35.7129V28.125V20.5371L43.8984 20.0742C43.4238 18.4395 42.3105 17.127 40.8164 16.4355C40.582 16.3242 40.1953 16.1777 39.9551 16.1016L39.5215 15.9668L30.1465 15.9551C22.2891 15.9492 20.707 15.9609 20.3906 16.0254ZM30.4512 21.7383C30.5566 21.7969 30.6855 21.9199 30.7441 22.0078C30.7969 22.0957 30.9844 22.7754 31.1543 23.5195C31.5176 25.0898 31.6699 25.459 32.168 25.957C32.666 26.4551 33.0352 26.6074 34.582 26.959C35.3203 27.1289 36 27.3105 36.0938 27.375C36.6387 27.7031 36.6387 28.5469 36.0938 28.875C36 28.9395 35.3203 29.1211 34.582 29.291C33.0352 29.6426 32.666 29.7949 32.168 30.293C31.6699 30.791 31.5176 31.1602 31.1543 32.7305C30.9844 33.4746 30.7969 34.1543 30.7441 34.2422C30.4043 34.7578 29.5957 34.7578 29.2559 34.2422C29.2031 34.1543 29.0156 33.4746 28.8457 32.7305C28.4824 31.1602 28.3301 30.791 27.832 30.293C27.334 29.7949 26.9648 29.6426 25.3945 29.2793C24.6504 29.1094 23.9707 28.9219 23.8828 28.8691C23.3672 28.5293 23.3672 27.7207 23.8828 27.3809C23.9707 27.3281 24.6504 27.1406 25.3945 26.9707C26.9648 26.6074 27.334 26.4551 27.832 25.957C28.3301 25.459 28.4824 25.0898 28.8457 23.5195C29.0156 22.7754 29.2031 22.0957 29.2559 22.0078C29.4141 21.7676 29.7012 21.6211 30 21.6211C30.1582 21.6211 30.3398 21.668 30.4512 21.7383Z" fill="#003454"/>
</g>
<defs>
<clipPath id="clip0_82_1455">
<rect width="30" height="30" fill="white" transform="translate(15 15)"/>
</clipPath>
</defs>
</svg>
