<svg width="60" height="60" viewBox="0 0 60 60" fill="none" xmlns="http://www.w3.org/2000/svg">
<rect width="60" height="60" rx="6" fill="#DCF4FF"/>
<path d="M29.5491 16.1192C28.969 16.1896 28.5296 16.4356 27.2756 17.3673C26.1389 18.211 25.8635 18.381 25.3889 18.5099C25.2659 18.545 24.51 18.6153 23.7014 18.6622C22.0491 18.7618 21.6917 18.838 21.1233 19.2071C20.6838 19.4884 20.3264 19.8927 20.0979 20.3556C19.9866 20.5841 19.7991 21.2228 19.594 22.0899C19.4182 22.8458 19.219 23.5782 19.1604 23.713C18.9553 24.1759 18.7034 24.4688 17.6663 25.4356C16.5471 26.4728 16.2424 26.8595 16.0549 27.4747C15.9143 27.9142 15.8967 28.7052 16.0198 29.1505C16.0608 29.3146 16.3713 30.0001 16.7112 30.6739C17.344 31.9337 17.4846 32.2911 17.5491 32.754C17.5725 32.9122 17.5198 33.5333 17.4319 34.2774C17.344 34.9688 17.2737 35.7599 17.2737 36.0353C17.2737 36.8673 17.5667 37.547 18.1819 38.1271C18.5979 38.5196 18.721 38.5841 20.0979 39.17C21.346 39.7032 21.5862 39.8321 21.9495 40.1485C22.0725 40.254 22.5471 40.9103 23.01 41.6134C23.5667 42.4513 23.9534 42.9728 24.1585 43.1603C24.7737 43.7169 25.6995 44.004 26.5022 43.8927C26.7073 43.8634 27.4514 43.6642 28.1604 43.4415C29.3616 43.0724 29.4788 43.0489 30.0003 43.0489C30.5217 43.0489 30.6389 43.0724 31.846 43.4415C32.5549 43.6642 33.2991 43.8634 33.5042 43.8927C34.301 44.0099 35.2268 43.7169 35.8479 43.1544C36.053 42.9669 36.4338 42.4571 36.9963 41.6075C37.4534 40.9103 37.928 40.254 38.051 40.1485C38.4085 39.838 38.6428 39.7149 39.9026 39.17C41.2854 38.5782 41.4085 38.5138 41.8186 38.1271C42.4338 37.547 42.7268 36.8673 42.7268 36.0353C42.7268 35.7599 42.6565 34.9688 42.5686 34.2774C42.4807 33.5333 42.428 32.9122 42.4514 32.754C42.5159 32.2853 42.6624 31.9278 43.2835 30.6915C43.6174 30.0235 43.9338 29.338 43.9807 29.1681C44.0921 28.7521 44.0862 27.9317 43.969 27.5333C43.7991 26.9474 43.553 26.6075 42.7503 25.8399C41.2737 24.4337 41.1038 24.2462 40.9104 23.8478C40.7932 23.6017 40.6116 22.9864 40.4006 22.0899C40.1956 21.2169 40.0139 20.5841 39.9026 20.3556C39.6741 19.8927 39.3167 19.4884 38.8831 19.2071C38.303 18.8321 37.969 18.7618 36.2932 18.6622C35.1096 18.5919 34.7346 18.5509 34.4417 18.4513C33.9788 18.2989 34.0022 18.3165 32.6956 17.3438C31.594 16.5235 31.2073 16.2892 30.7913 16.1837C30.428 16.0899 29.9475 16.0665 29.5491 16.1192ZM31.0549 20.5138C33.9202 20.8653 36.3753 22.3653 37.9456 24.7267C39.5628 27.1642 39.9788 30.1583 39.0764 32.9474C38.8421 33.6856 38.2268 34.8985 37.7522 35.5665C37.2424 36.2755 36.2756 37.2423 35.5667 37.7521C34.5588 38.4669 33.1174 39.1056 31.9807 39.3399C30.346 39.6798 28.6292 39.586 27.053 39.0763C26.3147 38.8419 25.1018 38.2267 24.4338 37.7521C23.7249 37.2423 22.7581 36.2755 22.2483 35.5665C21.7737 34.8985 21.1585 33.6856 20.9241 32.9474C19.8987 29.7657 20.5784 26.3673 22.7581 23.795C24.7561 21.4337 28.0315 20.1329 31.0549 20.5138Z" fill="#003454"/>
<path d="M28.8991 21.3867C27.0123 21.627 25.2545 22.5 23.8776 23.877C22.6237 25.1309 21.8209 26.6426 21.4635 28.4004C21.3053 29.1855 21.3229 30.9434 21.4928 31.7168C21.8854 33.4863 22.6471 34.8984 23.8776 36.123C25.1432 37.3945 26.6784 38.2031 28.4479 38.5312C29.2565 38.6836 30.7448 38.6836 31.5534 38.5312C33.3229 38.2031 34.858 37.3945 36.1237 36.123C37.3541 34.8926 38.1217 33.4805 38.5084 31.7168C38.6901 30.8848 38.6901 29.1152 38.5084 28.2832C38.1159 26.5078 37.3659 25.1133 36.1237 23.877C34.8932 22.6406 33.4694 21.873 31.7467 21.498C31.1139 21.3633 29.5729 21.3047 28.8991 21.3867ZM34.6178 26.3496C34.9811 26.5547 35.1745 26.8828 35.2038 27.334C35.2213 27.6035 35.1979 27.7617 35.1217 27.9258C34.987 28.2188 29.6608 33.5859 29.362 33.7266C29.0748 33.8672 28.6237 33.8555 28.3307 33.7031C28.0436 33.5566 25.0143 30.5215 24.8737 30.2461C24.733 29.9531 24.7506 29.4668 24.9147 29.168C25.2077 28.6348 25.7877 28.3828 26.3561 28.5352C26.5963 28.6055 26.7663 28.7461 27.7506 29.7188L28.8698 30.8262L31.0905 28.5703C33.1295 26.5078 33.3405 26.3145 33.6041 26.2266C33.9616 26.1152 34.2838 26.1562 34.6178 26.3496Z" fill="#003454"/>
</svg>
