<svg width="60" height="60" viewBox="0 0 60 60" fill="none" xmlns="http://www.w3.org/2000/svg">
<rect width="60" height="60" rx="6" fill="#DCF4FF"/>
<path d="M27.4507 17.4024C24.3745 17.6251 21.5913 18.8966 19.4233 21.0645C17.478 23.0099 16.271 25.4181 15.8433 28.213C15.7085 29.0919 15.7085 30.9083 15.8433 31.7872C16.4116 35.4903 18.4155 38.6192 21.5034 40.6231C24.8374 42.7794 29.144 43.2306 32.8765 41.8067C35.3726 40.8517 37.5112 39.1173 38.9995 36.8321C39.2749 36.4044 39.3394 36.252 39.3628 36.006C39.4097 35.42 39.0464 34.9806 38.4722 34.9337C37.98 34.8927 37.7456 35.0509 37.3472 35.672C34.7573 39.6974 29.9585 41.5196 25.3882 40.2013C23.6479 39.7032 22.1948 38.836 20.8589 37.5001C19.5347 36.1759 18.6382 34.6759 18.146 32.9591C17.2378 29.7892 17.8062 26.5196 19.7339 23.7892C20.2378 23.0743 21.4331 21.879 22.1479 21.3751C25.0015 19.3595 28.4526 18.838 31.728 19.9278C34.0308 20.6954 35.9526 22.1954 37.3062 24.2696C37.7515 24.9552 37.9741 25.1075 38.4722 25.0665C39.0464 25.0196 39.4097 24.5802 39.3628 23.9942C39.3394 23.7481 39.2749 23.5958 38.9995 23.1681C38.2964 22.0958 37.5698 21.2579 36.6499 20.461C34.5112 18.627 32.0444 17.6075 29.2319 17.4083C28.3237 17.338 28.3237 17.338 27.4507 17.4024Z" fill="#003454"/>
<path d="M27.2451 21.3105C25.4932 21.5859 24.1865 22.1309 22.9443 23.1152C21.1689 24.5098 19.9912 26.5547 19.6865 28.7637C19.6045 29.3789 19.6045 30.6211 19.6865 31.2363C20.1377 34.5117 22.4756 37.3066 25.6162 38.3086C26.6592 38.6484 27.0459 38.7012 28.3584 38.7012C29.3018 38.7012 29.665 38.6777 30.0576 38.5957C31.2705 38.332 32.3662 37.8633 33.3682 37.1836C34.5225 36.3984 35.958 34.7051 36.0225 34.0488C36.0811 33.4277 35.6592 32.959 35.0322 32.959C34.5986 32.959 34.3818 33.1113 34.0127 33.6797C33.5791 34.3477 32.7705 35.1562 32.1025 35.6016C31.001 36.334 29.958 36.6738 28.6338 36.7207C27.1279 36.7793 25.8564 36.4277 24.6084 35.6191C24.1162 35.2969 23.0615 34.2422 22.7393 33.75C22.2178 32.9414 21.8311 31.9512 21.6787 31.0371C21.6025 30.5684 21.6025 29.4316 21.6787 28.9629C21.8311 28.0488 22.2178 27.0586 22.7393 26.25C23.0615 25.7578 24.1162 24.7031 24.6084 24.3809C25.8564 23.5723 27.1279 23.2207 28.6338 23.2793C29.958 23.3262 31.001 23.666 32.1025 24.3984C32.7354 24.8203 33.5205 25.5938 33.9189 26.1914C34.2822 26.7305 34.499 26.9473 34.7686 27.0176C35.46 27.2051 36.0869 26.666 36.0225 25.9512C35.958 25.2891 34.5283 23.6016 33.3506 22.7988C32.2842 22.0781 30.9834 21.5508 29.7646 21.3574C29.2549 21.2754 27.6436 21.2461 27.2451 21.3105Z" fill="#003454"/>
<path d="M27.3628 25.2188C25.4702 25.6172 23.9819 27.1055 23.5835 29.004C23.4722 29.5372 23.4722 30.4629 23.5835 30.9844C23.9937 32.9415 25.4937 34.418 27.4448 34.7872C28.0718 34.9044 29.103 34.8633 29.7065 34.6876C30.644 34.418 31.8218 33.627 32.0269 33.1231C32.2729 32.5489 31.8921 31.8575 31.2886 31.7754C30.9077 31.7227 30.6733 31.8047 30.3042 32.1094C29.0562 33.1465 27.4272 33.1114 26.3374 32.0215C25.2065 30.8848 25.2065 29.1153 26.3374 27.9786C27.4331 26.8829 29.0562 26.8477 30.3042 27.8907C30.6733 28.1954 30.9077 28.2774 31.2944 28.2247C31.8101 28.1544 32.1616 27.6446 32.0854 27.0879C32.0444 26.836 31.9976 26.7598 31.6167 26.3907C31.1304 25.9219 30.4155 25.5176 29.7065 25.3126C29.144 25.1485 27.9253 25.1016 27.3628 25.2188Z" fill="#003454"/>
<path d="M41.2207 26.168C40.2246 26.2149 39.2871 26.2618 39.1406 26.2852C38.8887 26.3145 38.8125 26.3848 37.5293 27.6622L36.1758 29.004H32.1387H28.0957L27.8613 29.1387C27.2051 29.5079 27.2051 30.4922 27.8613 30.8614L28.0957 30.9962H32.1387H36.1758L37.5293 32.3379C38.8125 33.6212 38.8887 33.6856 39.1406 33.7149C39.7793 33.7969 43.3711 33.9141 43.582 33.8555C44.0273 33.7325 44.3496 33.1934 44.2617 32.7129C44.2383 32.584 43.9102 32.0333 43.4121 31.2774C42.9609 30.6094 42.5977 30.0294 42.5977 30.0001C42.5977 29.9708 42.9609 29.3907 43.4121 28.7227C43.9102 27.9669 44.2383 27.4161 44.2617 27.2872C44.3789 26.6602 43.834 26.0508 43.1836 26.0801C43.1016 26.086 42.2227 26.127 41.2207 26.168Z" fill="#003454"/>
</svg>
