<svg width="60" height="60" viewBox="0 0 60 60" fill="none" xmlns="http://www.w3.org/2000/svg">
<rect width="60" height="60" rx="6" fill="#DCF4FF"/>
<path d="M21.709 18.8496C21 19.1074 20.502 19.5469 20.1973 20.2031C20.0273 20.5664 20.0156 20.6426 20.0098 21.2402C20.0098 21.7852 20.0332 21.9316 20.1445 22.1719C20.2148 22.3301 20.2734 22.4648 20.2734 22.4766C20.2734 22.4883 19.2832 22.5 18.0762 22.5C16.166 22.5 15.8496 22.5117 15.6855 22.5937C15.4219 22.7285 15.2402 22.9043 15.1113 23.1562C15.0059 23.3672 15 23.6016 15 29.9824V36.5977L15.1289 36.8555C15.2109 37.0078 15.3691 37.1895 15.5156 37.2949L15.7734 37.4707L18.0234 37.4883C19.2598 37.4941 20.2734 37.5117 20.2734 37.5234C20.2734 37.5352 20.2148 37.6699 20.1445 37.8281C20.0332 38.0684 20.0098 38.2148 20.0098 38.7656C20.0098 39.3926 20.0156 39.4219 20.2266 39.8496C20.4961 40.3945 20.8828 40.7754 21.4336 41.0332C21.8027 41.209 21.8613 41.2207 22.5059 41.2207C23.168 41.2207 23.1855 41.2148 23.625 40.998C24.5625 40.5352 25.0723 39.6504 25.002 38.584C24.9844 38.2793 24.9316 38.0039 24.8496 37.8223C24.7852 37.6699 24.7266 37.5352 24.7266 37.5234C24.7266 37.5117 25.7051 37.5 26.8945 37.5C28.0898 37.5 29.0625 37.4824 29.0625 37.4531C29.0625 37.4297 29.0039 37.2656 28.9336 37.0898C28.8164 36.7969 28.7988 36.6387 28.7695 35.2441L28.7402 33.7207L28.3477 33.6797C27.4922 33.5977 26.8242 33.2695 26.1562 32.6074C25.459 31.9102 25.1191 31.1895 25.043 30.2402C24.8965 28.3359 26.4258 26.5078 28.3242 26.3203L28.7402 26.2793L28.7695 24.7559C28.7988 23.3613 28.8164 23.2031 28.9336 22.9102C29.0039 22.7344 29.0625 22.5703 29.0625 22.541C29.0625 22.5176 28.0898 22.5 26.8945 22.5C25.7051 22.5 24.7266 22.4883 24.7266 22.4766C24.7266 22.4648 24.7852 22.3301 24.8555 22.1719C24.9668 21.9316 24.9902 21.7852 24.9902 21.2402C24.9902 20.6367 24.9785 20.5723 24.8027 20.2031C24.5449 19.6523 24.1641 19.2656 23.625 18.9961C23.2148 18.7969 23.1387 18.7793 22.5938 18.7617C22.1426 18.75 21.9316 18.7734 21.709 18.8496Z" fill="#003454"/>
<path d="M30.6735 22.5996C30.4157 22.7344 30.2399 22.9102 30.111 23.1562C30.0055 23.3613 29.9997 23.5254 29.9997 25.5762C29.9997 26.7832 29.988 27.7734 29.9762 27.7734C29.9645 27.7734 29.8298 27.7148 29.6716 27.6445C29.4313 27.5332 29.2848 27.5098 28.7399 27.5098C28.1364 27.5098 28.0719 27.5215 27.7087 27.6914C27.2458 27.9141 26.8825 28.2246 26.6305 28.623C26.3259 29.1035 26.238 29.4551 26.2614 30.1055C26.279 30.6328 26.2966 30.7207 26.5016 31.125C26.9645 32.0625 27.8493 32.5723 28.9157 32.502C29.2204 32.4844 29.4958 32.4316 29.6774 32.3496C29.8298 32.2852 29.9645 32.2266 29.9762 32.2266C29.988 32.2266 29.9997 33.2109 29.9997 34.4121C29.9997 36.5625 29.9997 36.5977 30.1344 36.8555C30.2106 37.0078 30.3688 37.1895 30.5153 37.2949L30.7731 37.4707L33.0759 37.4883L35.3844 37.5059L35.2731 37.2773C34.7575 36.2168 35.1266 34.9043 36.1344 34.2129C36.9196 33.668 38.0798 33.668 38.8649 34.2129C39.8669 34.9043 40.2419 36.2168 39.7262 37.2773L39.6208 37.5H41.8591C44.0856 37.5 44.1032 37.5 44.361 37.3652C44.5192 37.2832 44.695 37.1191 44.8122 36.9492L44.9997 36.668V30V23.332L44.8122 23.0508C44.7067 22.8926 44.5134 22.7051 44.3844 22.6348C44.1501 22.5059 44.1266 22.5 41.8825 22.5H39.6208L39.7262 22.7227C40.2419 23.7832 39.8669 25.0957 38.8649 25.7871C38.0798 26.332 36.9196 26.332 36.1344 25.7871C35.1325 25.0957 34.7575 23.7832 35.2731 22.7227L35.3786 22.5H33.1169C31.1657 22.5059 30.8259 22.5176 30.6735 22.5996Z" fill="#003454"/>
</svg>
