<svg width="60" height="60" viewBox="0 0 60 60" fill="none" xmlns="http://www.w3.org/2000/svg">
<rect width="60" height="60" rx="6" fill="#DCF4FF"/>
<path d="M31.5703 16.0078C31.5176 16.0488 29.0332 19.5878 26.0508 23.871C21.1465 30.9082 20.625 31.6816 20.625 31.8867C20.625 32.0332 20.666 32.1503 20.7422 32.2265C20.8594 32.3437 20.9355 32.3437 24.6973 32.3437H28.541L28.5059 32.6191C28.4355 33.205 27.6562 43.1894 27.6562 43.5C27.6562 43.7519 27.6855 43.8574 27.7734 43.9453C27.9082 44.08 28.2832 44.1035 28.4297 43.9921C28.4824 43.9511 30.9668 40.4121 33.9492 36.1289C38.8535 29.0918 39.375 28.3183 39.375 28.1132C39.375 27.9668 39.334 27.8496 39.2578 27.7734C39.1406 27.6562 39.0645 27.6562 35.3027 27.6562H31.459L31.4941 27.375C31.5645 26.7949 32.3438 16.8105 32.3438 16.5C32.3438 16.248 32.3145 16.1425 32.2266 16.0546C32.0918 15.9199 31.7168 15.8964 31.5703 16.0078Z" fill="#003454"/>
</svg>
