<svg width="60" height="60" viewBox="0 0 60 60" fill="none" xmlns="http://www.w3.org/2000/svg">
<rect width="60" height="60" rx="6" fill="#DCF4FF"/>
<g clip-path="url(#clip0_82_1457)">
<path d="M29.0508 15.1348C28.3828 15.3633 28.0781 15.627 27.1758 16.7344C26.3555 17.7539 26.1504 17.9297 25.8164 17.9297C25.7285 17.9297 25.166 17.7949 24.5625 17.6309C23.9531 17.4668 23.2734 17.3203 23.0273 17.3027C21.6973 17.2031 20.3906 18.1406 20.0742 19.4297C20.0273 19.6172 19.957 20.3145 19.9219 20.9766C19.8516 22.2949 19.8047 22.4883 19.4766 22.7051C19.377 22.7754 18.8496 22.9922 18.3047 23.1973C16.8926 23.7305 16.541 23.9473 16.1191 24.5508C15.7441 25.084 15.6328 25.4297 15.5977 26.1328C15.5625 27.0059 15.668 27.2871 16.5527 28.6465C17.1914 29.6367 17.25 29.748 17.25 30C17.25 30.252 17.1914 30.3633 16.5527 31.3535C15.668 32.7129 15.5625 32.9941 15.5977 33.8672C15.6328 34.5645 15.709 34.8164 16.0898 35.3906C16.5117 36.041 16.8574 36.2578 18.3047 36.8027C18.8496 37.0078 19.377 37.2246 19.4766 37.2949C19.8047 37.5117 19.8516 37.7051 19.9219 39.0234C19.957 39.6855 20.0273 40.3828 20.0742 40.5703C20.3906 41.8594 21.6973 42.7969 23.0273 42.6973C23.2734 42.6797 23.9531 42.5332 24.5625 42.3691C25.166 42.2051 25.7285 42.0703 25.8164 42.0703C26.1504 42.0703 26.3555 42.2461 27.1816 43.2715C28.0898 44.3906 28.4238 44.6719 29.1035 44.8828C29.6191 45.041 30.3809 45.041 30.8965 44.8828C31.5762 44.6719 31.9102 44.3906 32.8184 43.2715C33.6445 42.2461 33.8496 42.0703 34.1895 42.0703C34.2773 42.0703 34.8398 42.2051 35.4375 42.3691C36.0762 42.5391 36.7148 42.6797 36.9727 42.6973C38.3086 42.791 39.6094 41.8535 39.9258 40.5703C39.9727 40.3828 40.043 39.6855 40.0781 39.0234C40.1484 37.7344 40.1953 37.5234 40.4883 37.3125C40.5703 37.2539 41.1445 37.0078 41.7715 36.7676C42.9492 36.3164 43.2129 36.1758 43.5586 35.8359C44.1211 35.2734 44.3613 34.6934 44.4023 33.8379C44.4375 33 44.3262 32.7012 43.4473 31.3535C42.5215 29.9238 42.5215 30.0762 43.4473 28.6465C44.3262 27.2988 44.4375 27 44.4023 26.1621C44.373 25.4648 44.2383 25.0605 43.8809 24.5508C43.541 24.0645 43.084 23.7363 42.3516 23.4551C42.0176 23.3262 41.4902 23.1211 41.1797 23.0039C40.5293 22.752 40.3301 22.6172 40.2188 22.3535C40.1719 22.2363 40.1133 21.6914 40.0781 20.9707C40.043 20.3145 39.9727 19.6172 39.9258 19.4297C39.6094 18.1406 38.3027 17.2031 36.9727 17.3027C36.7266 17.3203 36.0469 17.4668 35.4375 17.6309C34.834 17.7949 34.2715 17.9297 34.1836 17.9297C33.8496 17.9297 33.6445 17.7539 32.8184 16.7285C31.9102 15.6094 31.5762 15.3281 30.8965 15.1172C30.3516 14.9473 29.5723 14.959 29.0508 15.1348ZM30.3516 21.2812C30.498 21.3574 30.6738 21.5039 30.7441 21.6152C30.8672 21.791 30.8789 21.8848 30.8789 22.5059V23.1973L31.2187 23.2617C33.252 23.6836 34.7988 25.2656 34.8047 26.9297C34.8047 27.4863 34.4824 27.873 33.9727 27.9316C33.416 27.9961 33.0176 27.6328 32.9238 26.9824C32.8418 26.3965 32.625 26.0273 32.1562 25.6875C31.8926 25.4883 31.3711 25.2539 31.043 25.1719L30.8789 25.1367V27.0996V29.0625L31.043 29.0977C31.6875 29.2441 31.9688 29.3379 32.4316 29.5547C33.4043 30.0176 34.0781 30.6562 34.4824 31.4941C35.4902 33.6035 34.0312 35.9766 31.3359 36.5977L30.8789 36.7031V37.3887C30.8789 37.998 30.8672 38.0859 30.75 38.2617C30.4395 38.7129 29.9824 38.8418 29.5371 38.6016C29.1211 38.3789 29.0039 38.0977 29.0039 37.3242V36.6914L28.5937 36.5977C26.666 36.1641 25.2715 34.7695 25.0957 33.0996C24.9609 31.7812 26.7188 31.4883 26.959 32.7891C27.123 33.668 27.4336 34.0781 28.207 34.4531C28.4707 34.5762 28.752 34.6934 28.8457 34.7109L29.0039 34.7461V32.7891C29.0039 30.9727 28.998 30.8262 28.9043 30.8027C28.8457 30.7852 28.6523 30.7383 28.4766 30.6973C28.0605 30.6035 27.4453 30.3516 27.0234 30.1055C26.4785 29.7891 25.7227 28.9922 25.4707 28.4766C25.1953 27.9199 25.0547 27.2812 25.1016 26.7949C25.2656 25.1484 26.584 23.7949 28.4941 23.3145L29.0039 23.1855V22.5586C29.0039 21.7852 29.1211 21.5039 29.5312 21.2871C29.8477 21.1172 30.0234 21.1172 30.3516 21.2812Z" fill="#003454"/>
<path d="M28.5586 25.2773C27.5625 25.6465 27.0176 26.2617 27.0117 27.0176C27.0117 27.7734 27.6914 28.4941 28.6992 28.793L29.0039 28.8809V27.0059C29.0039 25.9805 28.9863 25.1367 28.9629 25.1426C28.9336 25.1426 28.752 25.2012 28.5586 25.2773Z" fill="#003454"/>
<path d="M30.8789 32.8828V34.7578L31.0254 34.7227C32.2148 34.4238 33.0234 33.5566 32.9062 32.7129C32.8125 32.0156 32.127 31.3711 31.1895 31.0957L30.8789 31.002V32.8828Z" fill="#003454"/>
</g>
<defs>
<clipPath id="clip0_82_1457">
<rect width="30" height="30" fill="white" transform="translate(15 15)"/>
</clipPath>
</defs>
</svg>
