<svg width="60" height="60" viewBox="0 0 60 60" fill="none" xmlns="http://www.w3.org/2000/svg">
<rect width="60" height="60" rx="6" fill="#DCF4FF"/>
<path d="M29.1387 15.7617C27.9609 15.8613 26.7012 16.1895 25.7168 16.6582C23.0156 17.9473 21.1465 20.8359 21.1289 23.7598C21.1231 24.4395 21.1348 24.5449 21.252 24.7617C21.4219 25.0781 21.8438 25.4473 22.1367 25.5352C22.4297 25.623 25.3652 25.6289 25.6758 25.5469C25.9981 25.4531 26.3731 25.1426 26.5313 24.8262C26.6426 24.6211 26.6895 24.3984 26.7246 23.9648C26.8242 22.8164 27.2754 22.1367 28.2539 21.6797C28.8223 21.416 29.3789 21.3164 30.293 21.3164C32.2676 21.3164 33.0703 21.8848 33.2871 23.4258C33.3633 23.9707 33.3223 24.293 33.1055 24.7559C32.7656 25.5 31.9922 26.3262 30.4102 27.6445C28.6934 29.0801 28.0723 29.7715 27.5391 30.8496C27.2461 31.4531 27.0586 32.0742 26.9531 32.7832C26.877 33.3223 26.877 34.5996 26.9531 34.875C27.0586 35.2383 27.3574 35.5781 27.7442 35.7715L28.0957 35.9473H29.707H31.3184L31.6524 35.7832C32.2793 35.4785 32.5195 34.998 32.5195 34.0664C32.5195 33.7676 32.543 33.457 32.5781 33.375C32.666 33.1348 33.0703 32.7363 33.9551 31.9922C36.3223 30.0176 37.5469 28.5703 38.2676 26.9004C39.1817 24.7734 39.0879 22.1309 38.0156 19.9336C37.0488 17.9414 35.3496 16.6348 32.9473 16.0254C32.0098 15.791 30.2578 15.668 29.1387 15.7617Z" fill="#003454"/>
<path d="M27.5098 38.6953C27.3457 38.7656 27.1289 38.9297 27.0176 39.0527C26.6367 39.4922 26.6309 39.5156 26.6309 41.4258V43.1543L26.8066 43.4707C26.9824 43.7871 27.1641 43.957 27.5391 44.1562C27.7266 44.2559 27.9023 44.2676 29.6777 44.2676C31.5176 44.2676 31.623 44.2617 31.875 44.1445C32.2148 43.9922 32.5078 43.6992 32.6602 43.3594C32.7773 43.1133 32.7832 42.9961 32.7832 41.4258V39.7559L32.6191 39.4219C32.5254 39.2285 32.3555 39.0117 32.2266 38.9062C31.8047 38.5723 31.6875 38.5547 29.6543 38.5547C27.8379 38.5547 27.7969 38.5605 27.5098 38.6953Z" fill="#003454"/>
</svg>
