<svg width="60" height="60" viewBox="0 0 60 60" fill="none" xmlns="http://www.w3.org/2000/svg">
<rect width="60" height="60" rx="6" fill="#DCF4FF"/>
<path d="M29.5308 17.414L29.2671 17.5488L27.4214 21.2636C26.4077 23.3027 25.5464 25.0077 25.5112 25.0429C25.4819 25.0781 23.648 25.3652 21.439 25.6816C16.9624 26.3261 17.0034 26.3202 16.7749 26.7773C16.6109 27.0937 16.605 27.3163 16.7515 27.6269C16.8277 27.791 17.7476 28.7167 19.7925 30.7031C21.6441 32.5019 22.7222 33.5859 22.728 33.662C22.7339 33.7265 22.4292 35.5429 22.0601 37.6992C21.6909 39.8554 21.3862 41.7128 21.3862 41.8183C21.3862 42.0995 21.5855 42.4453 21.8257 42.5976C22.0015 42.7089 22.0952 42.7206 22.3999 42.7031C22.7456 42.6738 22.9683 42.5683 26.3843 40.7636L29.9995 38.8593L33.6206 40.7578C35.6069 41.8066 37.3355 42.6855 37.4585 42.7089C38.0444 42.8437 38.6128 42.4101 38.6128 41.83C38.6128 41.7128 38.3081 39.8495 37.939 37.6933C37.5698 35.5312 37.2652 33.7206 37.2652 33.6738C37.2652 33.621 38.5952 32.2792 40.2241 30.6972C43.2417 27.7499 43.3589 27.621 43.3589 27.1992C43.3589 27.1113 43.3003 26.9179 43.23 26.7773C42.9956 26.3144 43.0425 26.3261 38.5249 25.6757C36.3042 25.3535 34.4761 25.0722 34.4644 25.0429C34.4527 25.0136 33.6089 23.3144 32.5894 21.2695L30.7319 17.5488L30.4683 17.414C30.3277 17.3437 30.1167 17.2851 29.9995 17.2851C29.8823 17.2851 29.6714 17.3437 29.5308 17.414Z" fill="#003454"/>
</svg>
