<svg width="60" height="60" viewBox="0 0 60 60" fill="none" xmlns="http://www.w3.org/2000/svg">
<rect width="60" height="60" rx="6" fill="#DCF4FF"/>
<g clip-path="url(#clip0_82_1454)">
<path d="M21.0293 15.1418C20.707 15.3527 20.625 15.587 20.625 16.2783V16.8817H19.1777C17.5723 16.8817 17.3613 16.9168 16.6992 17.2449C16.2188 17.485 15.6211 18.0767 15.3691 18.557C15.0352 19.178 15 19.4357 15 21.0818V22.5639H30H45V21.0818C45 19.4357 44.9648 19.178 44.6309 18.557C44.373 18.0708 43.7695 17.4733 43.2949 17.239C42.7441 16.9695 42.3574 16.8817 41.6777 16.8817H41.0742V18.352C41.0742 19.7579 41.0684 19.8341 40.9453 20.0508C40.7812 20.3437 40.4004 20.5429 40.1074 20.4902C39.8555 20.4433 39.5566 20.1973 39.457 19.9454C39.3926 19.7989 39.375 19.3069 39.375 17.7193C39.375 15.8975 39.3633 15.6573 39.2695 15.4757C38.9531 14.8431 37.9805 14.8431 37.6641 15.4757C37.582 15.6339 37.5586 15.8272 37.5586 16.2783V16.8817H36.5039H35.4492V18.27C35.4492 19.0374 35.4199 19.7638 35.3906 19.8809C35.3145 20.1446 34.9922 20.4375 34.7168 20.4902C34.4238 20.5429 33.9902 20.3203 33.8555 20.045C33.7617 19.8634 33.75 19.6232 33.75 17.7896C33.75 15.8975 33.7383 15.7218 33.6328 15.4933C33.4688 15.1301 33.2227 14.9954 32.7715 15.0188C32.4844 15.0364 32.373 15.0715 32.25 15.1828C31.9805 15.4406 31.9336 15.5988 31.9336 16.2666V16.8817H30.8496H29.7656V18.3637C29.7656 19.6759 29.7539 19.8634 29.6602 20.045C29.5137 20.3203 29.0859 20.5429 28.7988 20.4902C28.5234 20.4375 28.2012 20.1446 28.125 19.8809C28.0898 19.7521 28.0664 18.8382 28.0664 17.6549C28.0664 15.4875 28.0664 15.4816 27.75 15.1828C27.627 15.0715 27.5156 15.0364 27.2285 15.0188C26.5195 14.9837 26.2559 15.3351 26.25 16.3076V16.8817H25.1953H24.1406V18.3169C24.1406 19.4006 24.123 19.8048 24.0586 19.9454C23.959 20.1973 23.6602 20.4433 23.4082 20.4902C23.1152 20.5429 22.7344 20.3437 22.5703 20.0508C22.4473 19.8282 22.4414 19.7755 22.4414 17.7486C22.4414 15.4406 22.4355 15.4172 22.0312 15.136C21.7617 14.9544 21.3047 14.9544 21.0293 15.1418Z" fill="#003454"/>
<path d="M15 33.3074C15 42.1296 15 42.358 15.1172 42.7212C15.4395 43.7698 16.3359 44.6368 17.373 44.9121C17.6777 44.9883 19.1602 45 30 45C43.541 45 42.5742 45.0293 43.3242 44.6368C43.7754 44.3966 44.3848 43.7874 44.6309 43.3246C45.0234 42.5865 45 43.2074 45 33.2723V24.2627H30H15V33.3074ZM24.2988 27.4026C24.3867 27.467 24.5215 27.6135 24.5977 27.7189C24.7266 27.9122 24.7266 27.9298 24.7266 30.0035C24.7266 32.0773 24.7266 32.0948 24.5977 32.2882C24.5215 32.3936 24.3867 32.5401 24.2988 32.6045C24.1348 32.7217 24.0703 32.7275 22.0137 32.7275C19.6289 32.7275 19.6523 32.7334 19.4004 32.2882C19.2832 32.0773 19.2773 31.9894 19.2773 30.0153C19.2773 28.8847 19.3008 27.9005 19.3301 27.8244C19.4062 27.6252 19.6758 27.3733 19.8867 27.3147C19.9863 27.2796 20.9824 27.262 22.1016 27.2679C24.0586 27.2796 24.1406 27.2854 24.2988 27.4026ZM40.2832 27.385C40.3828 27.4436 40.5117 27.5666 40.5762 27.6486C40.6875 27.8009 40.6934 27.9005 40.6934 30.0035C40.6934 32.1066 40.6875 32.2061 40.5762 32.3585C40.2949 32.7334 40.3184 32.7275 37.9863 32.7275C35.9297 32.7275 35.8652 32.7217 35.7012 32.6045C35.6133 32.5401 35.4785 32.3936 35.4082 32.2882C35.2734 32.0948 35.2734 32.0773 35.2734 30.0211C35.2734 27.7951 35.2734 27.7834 35.584 27.4963C35.6602 27.4202 35.8008 27.3382 35.8945 27.3089C35.9883 27.2796 36.9727 27.262 38.0859 27.2679C39.9316 27.2796 40.125 27.2913 40.2832 27.385ZM32.3789 27.9298C32.748 28.1056 32.9414 28.6503 32.7539 29.0135C32.6543 29.2069 29.8945 31.9835 29.6953 32.089C29.4902 32.1944 29.2148 32.1944 28.9805 32.0831C28.875 32.0304 28.4473 31.6438 28.0254 31.2161C27.2168 30.4019 27.0879 30.1851 27.1875 29.8337C27.3105 29.4002 27.5801 29.1834 28.0078 29.1834C28.3242 29.1834 28.4355 29.2537 28.9629 29.7634L29.3555 30.15L30.457 29.0545C31.0605 28.457 31.6055 27.9357 31.6699 27.9005C31.8398 27.8127 32.1504 27.8244 32.3789 27.9298ZM24.252 34.9125C24.3633 34.9653 24.5098 35.0883 24.5742 35.1761C24.6914 35.3402 24.6973 35.4105 24.6973 37.5311C24.6973 39.6517 24.6914 39.7219 24.5742 39.886C24.3105 40.2492 24.2637 40.255 21.9727 40.255C19.998 40.255 19.8809 40.2492 19.6992 40.1379C19.5938 40.0734 19.459 39.9387 19.3945 39.8332C19.2832 39.6517 19.2773 39.5345 19.2773 37.5252C19.2773 34.5728 19.043 34.8071 22.002 34.8071C23.8359 34.8071 24.0762 34.8188 24.252 34.9125ZM32.2852 34.936C32.3906 35.0121 32.5371 35.1469 32.6016 35.2347C32.7188 35.3988 32.7246 35.4632 32.7246 37.5193C32.7246 39.9035 32.7305 39.8801 32.2852 40.132C32.0742 40.2492 31.9863 40.255 30 40.255C28.0137 40.255 27.9258 40.2492 27.7148 40.132C27.2695 39.8801 27.2754 39.9035 27.2754 37.5193C27.2754 35.4632 27.2812 35.3988 27.3984 35.2347C27.4629 35.1469 27.6094 35.0121 27.7148 34.936C27.9082 34.8071 27.9258 34.8071 30 34.8071C32.0742 34.8071 32.0918 34.8071 32.2852 34.936ZM40.2539 34.9125C40.3652 34.9653 40.5176 35.1 40.5879 35.2113C40.7227 35.4105 40.7227 35.4222 40.7227 37.5311C40.7227 40.4893 40.957 40.255 37.998 40.255C35.7422 40.255 35.6895 40.2492 35.4258 39.886C35.3086 39.7219 35.3027 39.6517 35.3027 37.5311C35.3027 35.4105 35.3086 35.3402 35.4258 35.1761C35.6895 34.813 35.7422 34.8071 37.998 34.8071C39.832 34.8071 40.0723 34.8188 40.2539 34.9125Z" fill="#003454"/>
<path d="M20.9766 30.0035V31.058H22.002H23.0273V30.0035V28.9491H22.002H20.9766V30.0035Z" fill="#003454"/>
<path d="M36.9727 30.0035V31.058H37.998H39.0234V30.0035V28.9491H37.998H36.9727V30.0035Z" fill="#003454"/>
<path d="M20.9766 37.5311V38.5562H22.002H23.0273V37.5311V36.5059H22.002H20.9766V37.5311Z" fill="#003454"/>
<path d="M28.9453 37.5311V38.5562H30H31.0547V37.5311V36.5059H30H28.9453V37.5311Z" fill="#003454"/>
<path d="M36.9727 37.5311V38.5562H37.998H39.0234V37.5311V36.5059H37.998H36.9727V37.5311Z" fill="#003454"/>
</g>
<defs>
<clipPath id="clip0_82_1454">
<rect width="30" height="30" fill="white" transform="translate(15 15)"/>
</clipPath>
</defs>
</svg>
