<svg width="60" height="60" viewBox="0 0 60 60" fill="none" xmlns="http://www.w3.org/2000/svg">
<rect width="60" height="60" rx="6" fill="#DCF4FF"/>
<g clip-path="url(#clip0_67_1166)">
<path d="M33.1641 17.168V19.3359L33.4043 19.166C33.7559 18.9082 34.1777 18.7793 34.6875 18.7793C35.0566 18.7852 35.1914 18.8145 35.5195 18.9668C36 19.1953 36.3691 19.5527 36.5977 20.0156C36.75 20.3262 36.7676 20.4199 36.7676 20.9473C36.7676 21.4688 36.75 21.5684 36.6035 21.8672C36.3867 22.3066 35.8535 22.7988 35.4082 22.9688C34.7695 23.209 33.9316 23.0977 33.3984 22.7051C33.2871 22.623 33.1934 22.5586 33.1816 22.5586C33.1699 22.5586 33.1641 23.5195 33.1641 24.6973V26.8359H35.2441H37.3242L37.1016 27.2285C36.8906 27.6211 36.8848 27.6387 36.8848 28.2715C36.8848 28.8457 36.9023 28.9512 37.043 29.25C37.2422 29.6836 37.6699 30.1055 38.1152 30.3223C38.4316 30.4746 38.5254 30.4922 39.0527 30.498C39.5977 30.498 39.668 30.4863 40.0312 30.3047C41.2266 29.7188 41.6543 28.2422 40.957 27.1113L40.7871 26.8359H42.8965H45L44.9883 21.3984L44.9707 15.9551L44.7949 15.668C44.6836 15.4922 44.5078 15.3164 44.332 15.2051L44.0449 15.0293L38.6016 15.0117L33.1641 15V17.168Z" fill="#003454"/>
<path d="M15.8496 21.4688C15.6914 21.5449 15.4746 21.6973 15.3691 21.8027C14.9824 22.2129 15 21.9727 15 26.9531V31.4648H15.9961H16.9922L17.0215 31.3008C17.25 30.0996 17.6953 29.2852 18.4453 28.6816C19.7051 27.6797 21.2637 27.498 22.6758 28.1895C23.0742 28.3887 23.2734 28.5352 23.6777 28.9395C24.0938 29.3555 24.2285 29.5371 24.457 30C24.6504 30.3926 24.75 30.6914 24.7969 31.0078L24.873 31.4648H25.8516H26.8359V30.2402V29.0098L27.1582 29.209C28.2656 29.8711 29.7246 29.4316 30.3047 28.2539C30.4863 27.8906 30.498 27.8203 30.498 27.2754C30.498 26.7656 30.4746 26.6484 30.3457 26.3672C30.1172 25.8926 29.7656 25.5234 29.3086 25.3008C28.9395 25.1191 28.8809 25.1074 28.2949 25.1074C27.6914 25.1074 27.6562 25.1133 27.252 25.3242L26.8359 25.5352V23.4316V21.3281H21.4922H16.1426L15.8496 21.4688Z" fill="#003454"/>
<path d="M20.291 29.5547C18.9023 30.0059 18.2812 31.6172 19.0137 32.8418L19.2129 33.1641H17.1035H15L15.0117 38.6016L15.0293 44.0449L15.2051 44.332C15.3164 44.5078 15.4922 44.6836 15.668 44.7949L15.9551 44.9707L20.5195 44.9883L25.0781 45V44.0039C25.0781 43.2539 25.0605 43.002 25.0078 42.9844C24.9668 42.9727 24.7617 42.9316 24.5508 42.8965C24.334 42.8555 23.9355 42.7148 23.6133 42.5566C22.5996 42.0586 21.8145 41.0918 21.5332 39.9902C21.4219 39.5449 21.4219 38.6309 21.5332 38.1504C21.8789 36.6973 23.1211 35.5078 24.5801 35.2207L25.0781 35.127V34.1426V33.1641H23.8828H22.6875L22.8867 32.7656C23.4961 31.5879 23.0332 30.2051 21.8613 29.6602C21.4746 29.4785 20.6777 29.4258 20.291 29.5547Z" fill="#003454"/>
<path d="M26.7773 35.2441V37.3242L26.5137 37.1543C26.127 36.9082 25.7988 36.8379 25.2129 36.8672C24.8027 36.8848 24.6328 36.9258 24.375 37.0547C23.9473 37.2656 23.5898 37.623 23.3613 38.0566C23.1855 38.3906 23.1738 38.4434 23.1738 39.0527C23.1738 39.6387 23.1855 39.7266 23.3379 40.0312C23.7188 40.7988 24.5332 41.3086 25.3887 41.3086C25.6875 41.3086 26.2559 41.1445 26.4961 40.9863C26.6191 40.9043 26.7305 40.8398 26.748 40.8398C26.7656 40.8398 26.7773 41.7773 26.7773 42.9199V45H32.168C38.1152 45 37.7871 45.0176 38.1973 44.6309C38.3027 44.5254 38.4551 44.3086 38.5312 44.1504L38.6719 43.8574V38.5078V33.1641H36.498H34.3242L34.418 33.293C34.4707 33.3691 34.5879 33.5742 34.6758 33.75C34.8164 34.0371 34.834 34.1367 34.834 34.6582C34.834 35.1797 34.8164 35.2793 34.6699 35.5723C34.4824 35.9648 33.9785 36.457 33.5918 36.6387C33.3633 36.7441 33.2051 36.7676 32.7246 36.7676C32.1973 36.7676 32.1035 36.75 31.793 36.5977C31.3301 36.3691 30.9727 36 30.7441 35.5195C30.5918 35.1914 30.5625 35.0566 30.5566 34.6875C30.5566 34.1777 30.6855 33.7559 30.9434 33.4043L31.1133 33.1641H28.9453H26.7773V35.2441Z" fill="#003454"/>
</g>
<defs>
<clipPath id="clip0_67_1166">
<rect width="30" height="30" fill="white" transform="translate(15 15)"/>
</clipPath>
</defs>
</svg>
