<svg width="60" height="60" viewBox="0 0 60 60" fill="none" xmlns="http://www.w3.org/2000/svg">
<rect width="60" height="60" rx="6" fill="#DCF4FF"/>
<g clip-path="url(#clip0_67_1165)">
<path d="M26.1621 15.0703C25.9746 15.1699 25.7168 15.4277 25.6289 15.5976C25.5645 15.7265 25.5469 16.1367 25.5469 17.6836V19.6054L25.7168 19.8691C26.0391 20.3847 25.834 20.3613 30 20.3613C34.166 20.3613 33.9609 20.3847 34.2832 19.8691L34.4531 19.6054V17.6777C34.4531 15.6503 34.4531 15.6386 34.166 15.3339C33.8496 14.9882 34.0195 15 29.9883 15C27.3984 15.0058 26.2441 15.0234 26.1621 15.0703Z" fill="#003454"/>
<path d="M20.4551 17.7305C19.7754 17.9121 19.2832 18.3926 19.0488 19.0898L18.9258 19.4531L18.9375 31.4531L18.9551 43.4473L19.1484 43.8398C19.3828 44.3145 19.7988 44.7129 20.25 44.877C20.5664 45 20.6309 45 30 45C39.3691 45 39.4336 45 39.75 44.877C40.2012 44.7129 40.6172 44.3145 40.8516 43.8398L41.0449 43.4473L41.0625 31.459C41.0742 19.7871 41.0742 19.459 40.9629 19.1074C40.834 18.6973 40.5762 18.3281 40.2246 18.0586C39.7559 17.7012 39.6152 17.6719 37.9629 17.6484L36.4629 17.6309L36.4277 18.7031C36.3926 19.9395 36.3105 20.3027 35.918 20.9004C35.4668 21.5859 34.6758 22.1191 33.9023 22.2598C33.4277 22.3477 26.5723 22.3477 26.0977 22.2598C25.3242 22.1191 24.5332 21.5859 24.082 20.9004C23.6895 20.2969 23.6074 19.9395 23.5723 18.7031L23.5371 17.6367L22.1543 17.6426C21.1406 17.6426 20.6895 17.666 20.4551 17.7305ZM34.6875 26.1445C35.0684 26.4082 35.2383 26.7832 35.1504 27.1816C35.0859 27.4688 34.9219 27.668 34.6289 27.8145L34.3711 27.9492H30H25.6289L25.3711 27.8145C24.668 27.457 24.6328 26.6074 25.3125 26.1445L25.5059 26.0156H30H34.4941L34.6875 26.1445ZM34.6289 31.7695C35.332 32.1328 35.3672 32.9824 34.6875 33.4395L34.4941 33.5742H30H25.5059L25.3125 33.4395C24.9316 33.1816 24.7617 32.8066 24.8496 32.4082C24.9141 32.1211 25.0781 31.9219 25.3711 31.7695L25.6289 31.6406H30H34.3711L34.6289 31.7695ZM34.3945 37.3301C35.1621 37.4941 35.4316 38.3906 34.8867 38.9414C34.7754 39.0469 34.582 39.1641 34.459 39.1992C34.3008 39.2402 32.8184 39.2578 29.8711 39.2461L25.5176 39.2285L25.3008 39.0938C24.8613 38.8242 24.709 38.2969 24.9316 37.834C25.0547 37.5762 25.2773 37.4004 25.582 37.3301C25.9219 37.2539 34.0254 37.248 34.3945 37.3301Z" fill="#003454"/>
</g>
<defs>
<clipPath id="clip0_67_1165">
<rect width="30" height="30" fill="white" transform="translate(15 15)"/>
</clipPath>
</defs>
</svg>
